<?xml version="1.0" encoding="utf-8"?>
<!-- Generator: Adobe Illustrator 25.2.0, SVG Export Plug-In . SVG Version: 6.00 Build 0)  -->
<svg version="1.1" id="Layer_2_1_" xmlns="http://www.w3.org/2000/svg" xmlns:xlink="http://www.w3.org/1999/xlink" x="0px" y="0px"
	 viewBox="0 0 800.4 657.3" style="enable-background:new 0 0 800.4 657.3;" xml:space="preserve">
<style type="text/css">
	.st0{fill:none;stroke:#000000;stroke-width:2;stroke-miterlimit:10;}
	.st1{fill:none;}
	.st2{fill:none;stroke:#70BF44;stroke-width:2;stroke-miterlimit:10;}
	.st3{fill:none;stroke:#000000;stroke-width:2;stroke-linecap:round;stroke-miterlimit:10;}
	.st4{fill:none;stroke:#000000;stroke-width:2;stroke-linecap:round;stroke-miterlimit:9.9998;}
	.st5{fill:none;stroke:#AC0000;stroke-width:2;stroke-linecap:round;stroke-miterlimit:10;}
	.st6{fill:none;stroke:#2388AE;stroke-width:2;stroke-miterlimit:10;}
</style>
<g id="Layer_3">
</g>
<path class="st0" d="M462.6,306.8c1.7,2.8,4.6,7.3,8.1,12.8c2.3,3.7,4.7,7.4,6.9,11.2c5.1,8.7,5.7,10.8,9,13.5
	c2.3,1.8,3.2,1.8,6.3,4.4c3.4,2.8,6.7,5.9,6.2,7.9c-0.8,3-9.5,2.8-18.1,2.6c-7.5-0.2-14.2-0.4-14.8-3c-0.5-1.8,1.8-4.7,4.1-6
	c2.2-1.4,4.3-1,4.6-2c0.4-1.4-2.7-3.7-3.6-4.4c-1.3-1.1-1.5-1.4-11.7-15.8c-3.4-4.8-9-12.8-15.1-21.3"/>
<path class="st1" d="M384.3,143.3c11.4,3,21.5,1.8,22.6-2.8"/>
<path class="st2" d="M404.9,109.5c2.2-3.9,5.4-5.6,6.8-6.4c2.2-1.2,6.8-3.6,10.1-1.3c1.3,1,2.2,2.6,2.4,4.3c0.3,2.8-1.5,4.9-3.3,6.8
	c-3.8,4.3-8.3,5.6-9.7,6c-2.7,0.7-6.5,1.6-8.1-0.4C401.2,116,404.4,110.5,404.9,109.5z"/>
<path class="st2" d="M376.6,102.3c2.1-2.5,10.1,0.4,14.5,5.5c2.1,2.5,5.6,7.9,3.7,11.2c-1.3,2.3-4.9,2.6-7.2,2.2
	C379.2,119.5,373.8,105.5,376.6,102.3z"/>
<path class="st0" d="M329,303.2c-3.3,6.2-5.7,11.3-7.2,14.5c-7.5,16.4-9.6,24.6-16.4,29.1c-0.4,0.2-2.7,1.7-5.5,4
	c-4.9,3.9-7.9,6.3-7.4,8.1c0.6,2.6,7.9,2.8,11.8,2.8c6.7,0.1,10.1,0.2,12.1-2c1.4-1.5,1.1-2.6,5.1-15.1c0,0,0-0.1,0.1-0.3
	c1.5-4.7,7.8-15.9,23.8-40"/>
<path class="st2" d="M369.7,100.1c-1.4-9.5-3.4-23.3,4.8-35.1c1.2-1.7,9.1-12.6,22.6-13.8c16.3-1.4,26.8,12.6,28.3,14.6
	c8.5,11.7,7.2,25.1,6.4,34.2c-0.4,5.1-2.4,27.7-19.4,40.3c-4.3,3.3-8.4,6.3-13.8,6C383.3,145.7,372.4,118.6,369.7,100.1z"/>
<path class="st0" d="M293,281.5c2.3,6.3,4.6,12.6,6.9,18.9c6.1,0.7,12.3,1.3,18.6,2c60.2,5.7,117.8,6,172.3,2.1
	c3.7-0.3,7.2-0.7,10.9-1.1c4-7.3,8-14.5,11.8-21.8"/>
<g id="Layer_2_2_">
	<ellipse class="st3" cx="124.6" cy="217" rx="14" ry="11.7"/>
	<ellipse class="st3" cx="186.4" cy="219.3" rx="17.3" ry="12.2"/>
	<ellipse class="st3" cx="256.1" cy="221.2" rx="17.3" ry="12.2"/>
	<ellipse class="st3" cx="330.4" cy="223.6" rx="17.3" ry="12.2"/>
	<ellipse class="st3" cx="402.5" cy="225" rx="17.3" ry="12.2"/>
	<ellipse class="st3" cx="467.6" cy="223.6" rx="17.2" ry="12.2"/>
	<ellipse class="st3" cx="530.7" cy="221.2" rx="17.2" ry="12.2"/>
	<ellipse class="st3" cx="600" cy="216.4" rx="17.2" ry="12.2"/>
	<ellipse class="st3" cx="656.7" cy="216.4" rx="17.2" ry="12.2"/>
	
		<ellipse transform="matrix(0.7398 -0.6728 0.6728 0.7398 -113.6166 140.2823)" class="st4" cx="124.6" cy="217" rx="2.5" ry="5.4"/>
	
		<ellipse transform="matrix(0.7398 -0.6728 0.6728 0.7398 -100.1361 179.7255)" class="st4" cx="182.3" cy="219.3" rx="2.5" ry="5.4"/>
	<ellipse transform="matrix(0.7398 -0.6728 0.6728 0.7398 -82.2458 229.8427)" class="st4" cx="256" cy="221.3" rx="2.5" ry="5.4"/>
	
		<ellipse transform="matrix(0.7398 -0.6728 0.6728 0.7398 -64.8274 279.5833)" class="st4" cx="329.1" cy="223.6" rx="2.5" ry="5.4"/>
	
		<ellipse transform="matrix(0.7398 -0.6728 0.6728 0.7398 -43.6654 329.6216)" class="st4" cx="404.3" cy="221.3" rx="2.5" ry="5.4"/>
	
		<ellipse transform="matrix(0.7398 -0.6728 0.6728 0.7398 -27.9868 372.5145)" class="st4" cx="467.6" cy="222.4" rx="2.5" ry="5.4"/>
	
		<ellipse transform="matrix(0.7398 -0.6728 0.6728 0.7398 -11.4948 414.9382)" class="st4" cx="530.7" cy="222.3" rx="2.5" ry="5.4"/>
	<ellipse transform="matrix(0.7398 -0.6728 0.6728 0.7398 9.3799 460.4496)" class="st4" cx="600" cy="218.1" rx="2.5" ry="5.4"/>
	
		<ellipse transform="matrix(0.7398 -0.6728 0.6728 0.7398 25.2926 498.1446)" class="st4" cx="656.7" cy="216.4" rx="2.5" ry="5.4"/>
	<path class="st3" d="M404.4,153.8c46.1,0,90-3.5,129.5-9.9c0.5-0.1,0.9-0.7,0.9-1.2c-6.9-61.5-62.6-109.6-130.5-109.6
		c-67.7,0-123.5,48-130.5,109.6c-0.1,0.5,0.3,1.1,0.9,1.2C314.4,150.4,358.3,153.8,404.4,153.8z"/>
	<line class="st3" x1="273.4" y1="170.2" x2="284.4" y2="145.5"/>
	<path class="st3" d="M539.7,170.9c-4.4-8.6-8.8-17-13.2-25.6"/>
	<path class="st3" d="M324,177.2"/>
	<path class="st3" d="M479,175.7"/>
	<path class="st3" d="M272.6,170.7c0,0.2,0,0.4-0.1,0.7c34.7,5.5,81.1,9,131.9,9c52.7,0,100.6-3.7,135.7-9.6"/>
	<path class="st3" d="M307.5,174.5"/>
	<path class="st3" d="M56.8,225.8c24.5,4.3,56.6,9.4,94.7,13.7c37.9,4.2,66.5,5.9,93.6,7.3c0,0,65.8,3.7,132.4,3.9
		c147.2,0.5,349.9-18.9,367.8-20.5"/>
	<path class="st3" d="M56.8,225.8c9.6-9,20.8-13.3,32-17.7c38.8-14.1,77.5-24.9,118.3-32.5c21.4-3.3,41.8-6.5,63-4.9"/>
	<path class="st3" d="M539.7,170.9c8.9,1.1,20.3,2.7,33.4,4.8c15.6,2.5,27.1,4.7,38.8,6.8c24.8,4.7,37.2,7,47.9,10
		c20.5,5.5,35.5,11.6,40.4,13.5c12.9,5.3,28.9,12.8,46.6,23.5"/>
	<path class="st3" d="M56.7,225c30.2,12,67.2,24.8,110.2,35.7c43.8,11.1,78.9,16.3,97.6,18.6c49.5,6.4,86.1,6.6,138,6.8
		c32.4,0.1,54.5,0.2,85.2-2.2c12.4-1,45.3-3.8,96.4-13.3c41.3-7.7,96.3-20,161.2-40.6"/>
</g>
<path class="st5" d="M390.2,131c0.7,0.8,4.1,4.1,9.4,4.3c6.1,0.1,9.9-4.2,10.5-4.9"/>
<ellipse class="st6" cx="395.6" cy="367.7" rx="68.7" ry="11.6"/>
<ellipse class="st6" cx="396.2" cy="367.7" rx="68.7" ry="11.6"/>
<ellipse class="st6" cx="396.2" cy="399.4" rx="88.7" ry="12.9"/>
<ellipse class="st6" cx="396.2" cy="441.3" rx="118.8" ry="12.9"/>
<ellipse class="st6" cx="396.2" cy="489.4" rx="148.1" ry="15.3"/>
</svg>
